# xmcd CD database file
#
# Track frame offsets:
#	150
#	23796
#	61613
#
# Disc length: 1083 seconds
#
# Revision: 1
# Processed by: cddbd v1.5.1PL0 Copyright (c) Steve Scherf et al.
# Submitted via: CDex 1.51
#
DISCID=18043903
DTITLE=サザンオールスターズ - 彩〜Ａｊａ
DYEAR=1900
DGENRE=Rock
TTITLE0=彩〜Ａｊａ〜
TTITLE1=ＦＲＩＥＮＤＳ
TTITLE2=夢見るアニバーサリー＜ＢＯＮＵＳ　ＴＲＡＣＫ＞
EXTD=
EXTT0=
EXTT1=
EXTT2=
PLAYORDER=
